<svg width="26" height="26" viewBox="0 0 26 26" fill="none" xmlns="http://www.w3.org/2000/svg">
<path d="M22.3438 17.8072V8.1928C22.3437 8.04892 22.3055 7.90761 22.233 7.78334C22.1605 7.65906 22.0563 7.55627 21.931 7.48547L13.3998 2.66346C13.2778 2.59452 13.1401 2.55829 13 2.55829C12.8599 2.55829 12.7222 2.59452 12.6002 2.66346L4.06895 7.48547C3.94369 7.55627 3.83948 7.65906 3.76697 7.78334C3.69446 7.90761 3.65625 8.04892 3.65625 8.1928V17.8072C3.65625 17.9511 3.69446 18.0924 3.76697 18.2166C3.83948 18.3409 3.94369 18.4437 4.06895 18.5145L12.6002 23.3365C12.7222 23.4055 12.8599 23.4417 13 23.4417C13.1401 23.4417 13.2778 23.4055 13.3998 23.3365L21.931 18.5145C22.0563 18.4437 22.1605 18.3409 22.233 18.2166C22.3055 18.0924 22.3438 17.9511 22.3438 17.8072V17.8072Z" stroke="white" stroke-width="1.625" stroke-linecap="round" stroke-linejoin="round"/>
<path d="M13 16.6562C15.0193 16.6562 16.6562 15.0193 16.6562 13C16.6562 10.9807 15.0193 9.34375 13 9.34375C10.9807 9.34375 9.34375 10.9807 9.34375 13C9.34375 15.0193 10.9807 16.6562 13 16.6562Z" stroke="white" stroke-width="1.625" stroke-linecap="round" stroke-linejoin="round"/>
</svg>
