<svg id="Capa_1" enable-background="new 0 0 512 512" height="512" viewBox="0 0 512 512" width="512" xmlns="http://www.w3.org/2000/svg"><g><g><path d="m256 0c-135.31 0-245 109.69-245 245 0 .325.011.647.012.971l1.003.463c0-.039-.001-.077-.002-.116 9.591-11.969 23.843-18.826 39.159-18.826h130.634c7.061 0 13.868 1.459 20.077 4.163 1.173-.099 2.358-.152 3.554-.152h8.901c11.432 10.446 26.21 16.194 41.661 16.194 14.776 0 28.929-5.268 40.137-14.865 9.029-8.339 21.05-13.251 34.056-13.251h130.634c15.285 0 29.526 6.838 39.117 18.772.004.015.014.029.018.044l.93-.46c-3.738-132.042-111.944-237.937-244.891-237.937z" fill="#26a6fe"/></g><g><path d="m320.127 210h-2.52v11.181c4.082-1.057 8.306-1.6 12.586-1.6h130.634c4.307 0 8.525.562 12.586 1.609v-118.199c0-43.024-34.878-77.903-77.903-77.903-34.137 0-63.125 21.966-73.653 52.528.086 1.118.143 2.244.143 3.384 0 4.199-.605 8.381-1.797 12.429l-.14.475.293.399c8.599 11.711 13.145 25.592 13.145 40.143v26.169l.449.296c7.083 4.674 11.311 12.52 11.311 20.988v2.967c-.001 13.859-11.276 25.134-25.134 25.134z" fill="#596c76"/></g><g><path d="m356.194 102.991c0-36.365 24.918-66.906 58.609-75.491-6.17-1.572-12.634-2.412-19.294-2.412-34.137 0-63.125 21.966-73.653 52.528.087 1.118.144 2.244.144 3.384 0 4.199-.605 8.381-1.797 12.429l-.14.475.293.399c8.599 11.711 13.145 25.592 13.145 40.143v26.169l.449.296c7.083 4.674 11.311 12.52 11.311 20.988v2.967c0 13.858-11.274 25.133-25.133 25.133h-2.52v11.181c4.082-1.057 8.306-1.6 12.586-1.6h26.001v-116.589z" fill="#465a61"/></g><g><path d="m140.51 439.264-3.371-2.003c-2.715-1.613-4.401-4.578-4.401-7.736v-17.792h-7.181c-3.784 0-6.862-3.079-6.862-6.863v-51.006c0-3.784 3.079-6.862 6.862-6.862h7.181v-43.984c0-5.267 4.289-8.7 8.436-8.976l.724-.048.179-.704c3.295-12.977 11.849-24.29 23.47-31.039l.498-.289v-4.29c0-3.369 1.889-6.383 4.929-7.866l.237-.116.149-.217c7.025-10.227 18.194-16.689 30.39-17.785l.282-1.036c-6.204-2.672-13.039-4.159-20.223-4.159h-130.636c-16.289 0-30.789 7.62-40.161 19.479.361 92.728 52.24 173.288 128.498 214.584l1-.556z" fill="#b3dafe"/><path d="m116.49 218.697c-8.459 0-16.518-1.74-23.844-4.873l-16.326 12.669v46.857c0 3.175 3.51 5.095 6.183 3.383l31.819-20.378c1.32-.846 3.012-.846 4.333 0l31.819 20.378c2.674 1.712 6.183-.208 6.183-3.383v-46.857l-16.326-12.669c-7.323 3.133-15.382 4.873-23.841 4.873z" fill="#8ac9fe"/><g><path d="m101.662 226.492 10.288-7.984c-6.802-.506-13.302-2.118-19.303-4.685l-16.326 12.669v46.857c0 3.175 3.51 5.095 6.183 3.383l19.158-12.269z" fill="#60b7ff"/></g><path d="m116.49 218.697c-7.633 0-14.936-1.427-21.673-4.005v13.38c0 1.051.432 2.055 1.195 2.778l17.849 16.896c1.475 1.396 3.784 1.396 5.259 0l17.849-16.896c.763-.722 1.195-1.727 1.195-2.778v-13.38c-6.738 2.578-14.041 4.005-21.674 4.005z" fill="#f6a96c"/><path d="m177.323 116.618v12.148h1.433c1.196-14.365 6.872-27.472 15.637-37.914v-16.233c0-20.224-16.395-36.619-36.619-36.619h-82.568c-20.224 0-36.619 16.395-36.619 36.619v58.274c3.959-2.605 8.692-4.127 13.776-4.127h3.294v-12.148c0-15.051 12.245-27.295 27.296-27.295h67.074c15.051 0 27.296 12.244 27.296 27.295z" fill="#596c76"/><g><path d="m81 74.619c0-20.224 16.395-36.619 36.619-36.619h-42.413c-20.224 0-36.619 16.395-36.619 36.619v58.274c3.959-2.605 8.692-4.127 13.776-4.127h3.294v-12.148c0-14.393 11.201-26.212 25.343-27.218z" fill="#465a61"/></g><g><path d="m55.657 157.864v-30.097h-3.294c-14.433 0-26.133 11.7-26.133 26.133v2.967c0 14.433 11.7 26.133 26.133 26.133h8.752c-3.494-7.668-5.458-16.175-5.458-25.136z" fill="#f6a96c"/></g><path d="m166.74 184.867v-2.967c0-8.468 4.228-16.313 11.311-20.988l.198-.131c.045-.967.074-1.938.074-2.917v-41.246c0-15.627-12.668-28.296-28.296-28.296h-67.074c-15.627 0-28.296 12.668-28.296 28.296v41.246c0 34.149 27.683 61.833 61.833 61.833 21.407 0 40.27-10.881 51.369-27.411-.726-2.347-1.119-4.838-1.119-7.419z" fill="#fed2a4"/><path d="m80 157.864v-41.246c0-15.627 12.668-28.296 28.296-28.296h-25.343c-15.627 0-28.296 12.668-28.296 28.296v41.246c0 34.149 27.683 61.833 61.833 61.833 4.342 0 8.576-.455 12.665-1.306-28.067-5.85-49.155-30.724-49.155-60.527z" fill="#ffbd86"/><g><g><g><path d="m81.818 146.403c-4.142 0-7.5-3.358-7.5-7.5v-9.725c0-4.142 3.358-7.5 7.5-7.5s7.5 3.358 7.5 7.5v9.725c0 4.142-3.358 7.5-7.5 7.5z" fill="#d88a55"/></g><g><path d="m151.162 146.403c-4.142 0-7.5-3.358-7.5-7.5v-9.725c0-4.142 3.358-7.5 7.5-7.5s7.5 3.358 7.5 7.5v9.725c0 4.142-3.358 7.5-7.5 7.5z" fill="#d88a55"/></g></g><g><path d="m116.486 166.28c-1.706 0-3.42-.579-4.827-1.763l-9.094-7.658c-2.698-2.272-3.448-6.118-1.802-9.237l9.094-17.23c1.933-3.664 6.472-5.065 10.133-3.132 3.664 1.933 5.066 6.47 3.132 10.133l-6.273 11.886 4.471 3.765c3.168 2.668 3.574 7.399.906 10.568-1.482 1.761-3.604 2.668-5.74 2.668z" fill="#d88a55"/></g></g><g><path d="m116.49 198.772c-10.996 0-21.992-4.186-30.363-12.557-2.929-2.929-2.929-7.678 0-10.606 2.929-2.929 7.678-2.929 10.606 0 10.895 10.894 28.62 10.893 39.514 0 2.929-2.929 7.678-2.929 10.606 0 2.929 2.929 2.929 7.678 0 10.606-8.371 8.371-19.367 12.557-30.363 12.557z" fill="#d88a55"/></g><g><circle cx="116.49" cy="281.379" fill="#8ac9fe" r="8.059"/></g><g><circle cx="116.49" cy="314.404" fill="#8ac9fe" r="8.059"/></g></g><g><path d="m500.892 237.938c-9.375-11.79-23.832-19.357-40.065-19.357h-130.634c-10.32 0-19.919 3.065-27.957 8.32-1.109 1.248-2.27 2.447-3.475 3.602v1h7.801c13.61 0 26.351 6.717 34.08 17.969l.149.217.237.116c3.041 1.483 4.929 4.498 4.929 7.866v4.29l.498.289c11.62 6.749 20.174 18.062 23.469 31.039l.179.704.724.048c4.146.276 8.436 3.708 8.436 8.976v43.983h7.181c3.784 0 6.862 3.079 6.862 6.862v51.006c0 3.784-3.079 6.863-6.862 6.863h-7.181v17.792c0 3.158-1.687 6.123-4.401 7.736l-3.371 2.003v20.738l1 .583c76.527-41.44 128.509-122.443 128.509-215.583 0-2.363-.042-4.716-.108-7.062z" fill="#b3dafe"/><path d="m395.51 210.785c-8.459 0-16.517-1.74-23.843-4.873l-16.326 12.669v46.857c0 3.175 3.51 5.095 6.183 3.383l31.819-20.378c1.32-.846 3.012-.846 4.333 0l31.819 20.378c2.674 1.712 6.183-.208 6.183-3.383v-46.857l-16.326-12.669c-7.325 3.134-15.383 4.873-23.842 4.873z" fill="#8ac9fe"/><g><path d="m380.662 218.581 10.29-7.985c-6.796-.507-13.289-2.119-19.285-4.684l-16.326 12.669v46.857c0 3.175 3.51 5.095 6.183 3.383l19.138-12.257z" fill="#60b7ff"/></g><path d="m395.51 210.785c-7.633 0-14.936-1.427-21.673-4.005v13.381c0 1.051.432 2.055 1.195 2.778l17.849 16.896c1.475 1.396 3.784 1.396 5.259 0l17.849-16.896c.763-.722 1.195-1.727 1.195-2.778v-13.381c-6.738 2.579-14.041 4.005-21.674 4.005z" fill="#ea9b58"/><g><path d="m394.195 222.938c-.763-.722-1.195-1.727-1.195-2.778v-9.434c-6.724-.277-13.168-1.652-19.163-3.946v13.381c0 1.051.432 2.055 1.195 2.778l17.849 16.896c1.475 1.396 3.784 1.396 5.259 0l6.952-6.581z" fill="#d88a55"/></g><g><g><path d="m459.637 119.855h-3.294v30.097c0 8.962-1.964 17.469-5.458 25.136h8.752c14.433 0 26.133-11.7 26.133-26.133v-2.967c0-14.433-11.7-26.133-26.133-26.133z" fill="#ea9b58"/></g></g><path d="m435.483 83.844c-7.372-3.399-15.875-3.362-23.316-.115l-61.21 26.712c-10.496 4.58-17.281 14.944-17.281 26.396v13.115c0 3.945.385 7.799 1.091 11.539 6.347 4.566 10.491 12.01 10.491 20.408v2.967c0 .354-.012.706-.027 1.057 11.219 15.652 29.55 25.861 50.277 25.861 34.149 0 61.833-27.683 61.833-61.833v-31.97c.002-15.139-8.954-28.188-21.858-34.137z" fill="#f6a96c"/><g><path d="m359 149.952v-31.97c0-4.163.698-8.158 1.948-11.901l-9.99 4.36c-10.496 4.58-17.281 14.944-17.281 26.396v13.115c0 3.945.385 7.799 1.091 11.539 6.347 4.566 10.491 12.01 10.491 20.408v2.967c0 .354-.012.706-.027 1.057 11.219 15.652 29.55 25.861 50.277 25.861 4.34 0 8.574-.452 12.661-1.302-28.074-5.842-49.17-30.72-49.17-60.53z" fill="#ea9b58"/></g><g><g><g><path d="m360.838 138.492c-4.142 0-7.5-3.358-7.5-7.5v-9.725c0-4.142 3.358-7.5 7.5-7.5s7.5 3.358 7.5 7.5v9.725c0 4.142-3.358 7.5-7.5 7.5z" fill="#d88a55"/></g><g><path d="m430.182 138.492c-4.142 0-7.5-3.358-7.5-7.5v-9.725c0-4.142 3.358-7.5 7.5-7.5s7.5 3.358 7.5 7.5v9.725c0 4.142-3.358 7.5-7.5 7.5z" fill="#d88a55"/></g></g><g><path d="m395.503 158.37c-1.253 0-2.523-.314-3.691-.977l-6.54-3.707c-3.651-2.07-6.211-5.618-7.025-9.735s.205-8.373 2.795-11.675l8.566-10.925c2.556-3.259 7.27-3.83 10.53-1.274 3.259 2.556 3.83 7.27 1.274 10.529l-8.134 10.375 5.931 3.361c3.604 2.042 4.869 6.62 2.827 10.223-1.381 2.437-3.92 3.805-6.533 3.805z" fill="#d88a55"/></g></g><g><path d="m395.51 190.86c-10.997 0-21.993-4.186-30.364-12.557-2.929-2.929-2.929-7.678 0-10.606 2.929-2.929 7.678-2.929 10.606 0 10.895 10.894 28.62 10.894 39.514 0 2.929-2.929 7.678-2.929 10.606 0 2.929 2.929 2.929 7.678 0 10.606-8.37 8.372-19.366 12.557-30.362 12.557z" fill="#d88a55"/></g><g><circle cx="395.51" cy="273.468" fill="#8ac9fe" r="8.059"/></g><g><circle cx="395.51" cy="306.493" fill="#8ac9fe" r="8.059"/></g></g><g><path d="m246.406 66.54h19.188c22.721 0 42.855 11.228 55.189 28.414 1.433-4.394 2.217-9.081 2.217-13.954 0-24.853-20.147-45-45-45-20.151 0-37.206 13.247-42.939 31.506 3.692-.624 7.478-.966 11.345-.966z" fill="#fe9901"/></g><g><path d="m294.999 39.332c-5.246-2.142-10.982-3.332-16.999-3.332-20.151 0-37.206 13.247-42.939 31.506 3.692-.624 7.478-.966 11.345-.966h19.188c1.26 0 2.512.04 3.755.108 4.174-12.408 13.605-22.395 25.65-27.316z" fill="#fb8801"/></g><path d="m246.406 66.54h19.188c5.992 0 11.802.788 17.34 2.252.036-.427.066-.856.066-1.292 0-8.525-6.975-15.5-15.5-15.5h-23c-8.525 0-15.5 6.975-15.5 15.5 0 .436.03.865.066 1.292 5.538-1.464 11.348-2.252 17.34-2.252z" fill="#fedf30"/><g><path d="m263.5 52h-19c-8.525 0-15.5 6.975-15.5 15.5 0 .436.03.865.066 1.292 5.538-1.464 11.348-2.252 17.34-2.252h1.643c.502-8.08 7.25-14.54 15.451-14.54z" fill="#fed402"/></g><g><g><path d="m174.801 248.913h17.288c4.076 0 7.5 2.802 8.472 6.579h110.878c.972-3.777 4.397-6.579 8.472-6.579h17.288c2.12 0 4.066.758 5.583 2.016-7.422-12.241-20.858-20.427-36.22-20.427h-9.291c-10.853 10.042-25.354 16.194-41.271 16.194s-30.418-6.152-41.271-16.194h-9.291c-15.361 0-28.798 8.186-36.22 20.427 1.517-1.258 3.463-2.016 5.583-2.016z" fill="#6e61b6"/></g><g fill="#d9e7ec"><path d="m139.51 438.67v21.914c25.14 13.613 52.929 22.953 82.396 27.057z"/><path d="m141.755 294c1.612 0 3.153.43 4.581 1.278l104.043 61.838c1.7 1.01 3.643 1.544 5.62 1.544s3.92-.534 5.62-1.544l104.043-61.838c1.428-.848 2.969-1.278 4.581-1.278.301 0 .603.02.906.053-5.261-22.665-25.568-39.561-49.833-39.561h-130.633c-24.266 0-44.572 16.896-49.833 39.561.302-.033.604-.053.905-.053z"/><path d="m290.095 487.641c29.466-4.104 57.256-13.444 82.396-27.057v-21.914z"/></g><path d="m256 246.697c-8.459 0-16.517-1.74-23.843-4.873l-16.326 12.669v46.857c0 3.175 3.51 5.095 6.183 3.383l31.819-20.378c1.32-.846 3.012-.846 4.333 0l31.819 20.378c2.674 1.712 6.183-.208 6.183-3.383v-46.857l-16.326-12.669c-7.325 3.133-15.383 4.873-23.842 4.873z" fill="#60b7ff"/><g><path d="m241 254.492 10.304-7.996c-6.746-.519-13.191-2.126-19.147-4.673l-16.326 12.669v46.857c0 3.175 3.51 5.095 6.183 3.383l18.986-12.159z" fill="#26a6fe"/></g><path d="m256 246.697c-7.633 0-14.936-1.427-21.673-4.005v13.38c0 1.051.432 2.055 1.195 2.778l17.849 16.896c1.475 1.396 3.784 1.396 5.259 0l17.849-16.896c.763-.722 1.195-1.727 1.195-2.778v-13.38c-6.738 2.578-14.041 4.005-21.674 4.005z" fill="#ffbd86"/><g><path d="m258.195 258.85c-.763-.722-1.195-1.727-1.195-2.778v-9.399c-.334.005-.665.023-1 .023-7.633 0-14.936-1.427-21.673-4.005v13.38c0 1.051.432 2.055 1.195 2.778l17.849 16.896c1.475 1.396 3.784 1.396 5.259 0l8.707-8.243z" fill="#f6a96c"/></g><path d="m191.873 156.766h3.294v-2.872c0-20.166 16.406-36.571 36.571-36.571h48.522c20.166 0 36.571 16.406 36.571 36.571v2.872h3.294c5.342 0 10.297 1.681 14.373 4.534v-26.854c0-38.056-30.85-68.906-68.906-68.906h-19.188c-38.056 0-68.906 30.85-68.906 68.906v26.854c4.078-2.853 9.033-4.534 14.375-4.534z" fill="#fea613"/><g><path d="m276.25 66.363c-3.473-.539-7.031-.823-10.656-.823h-19.188c-38.056 0-68.906 30.85-68.906 68.906v26.854c4.076-2.853 9.031-4.534 14.373-4.534h3.294v-2.872c0-15.938 10.252-29.519 24.505-34.516 6.118-27.409 28.545-48.663 56.578-53.015z" fill="#fe9901"/></g><g><path d="m320.127 155.766h-3.294v30.097c0 8.962-1.964 17.469-5.458 25.136h8.752c14.433 0 26.133-11.7 26.133-26.133v-2.967c0-14.432-11.7-26.133-26.133-26.133z" fill="#ffbd86"/><path d="m195.167 185.864v-30.097h-3.294c-14.433 0-26.133 11.7-26.133 26.133v2.967c0 14.433 11.7 26.133 26.133 26.133h8.752c-3.494-7.668-5.458-16.175-5.458-25.136z" fill="#f6a96c"/></g><g><path d="m256 247.697c-34.149 0-61.833-27.683-61.833-61.833v-31.97c0-20.75 16.821-37.571 37.571-37.571h48.523c20.75 0 37.571 16.821 37.571 37.571v31.97c.001 34.149-27.683 61.833-61.832 61.833z" fill="#fed2a4"/></g><path d="m219.335 185.864v-31.97c0-20.75 16.821-37.571 37.571-37.571h-25.167c-20.75 0-37.571 16.821-37.571 37.571v31.97c0 34.149 27.683 61.833 61.833 61.833 4.312 0 8.52-.444 12.584-1.284-28.116-5.814-49.25-30.712-49.25-60.549z" fill="#ffbd86"/><g><g><g><path d="m221.328 174.403c-4.142 0-7.5-3.358-7.5-7.5v-9.725c0-4.142 3.358-7.5 7.5-7.5s7.5 3.358 7.5 7.5v9.725c0 4.142-3.358 7.5-7.5 7.5z" fill="#d88a55"/></g><g><path d="m290.672 174.403c-4.142 0-7.5-3.358-7.5-7.5v-9.725c0-4.142 3.358-7.5 7.5-7.5s7.5 3.358 7.5 7.5v9.725c0 4.142-3.358 7.5-7.5 7.5z" fill="#d88a55"/></g></g><g><path d="m255.996 194.28c-1.706 0-3.42-.579-4.827-1.763l-9.094-7.658c-2.698-2.272-3.448-6.118-1.802-9.237l9.094-17.23c1.933-3.664 6.472-5.066 10.133-3.132 3.664 1.933 5.066 6.47 3.132 10.133l-6.273 11.886 4.471 3.765c3.168 2.668 3.574 7.399.906 10.568-1.483 1.761-3.604 2.668-5.74 2.668z" fill="#d88a55"/></g></g><g><path d="m256 226.771c-10.996 0-21.993-4.186-30.364-12.557-2.929-2.929-2.929-7.677 0-10.606s7.678-2.93 10.606 0c10.895 10.894 28.62 10.894 39.515 0 2.929-2.929 7.678-2.93 10.606 0 2.929 2.929 2.929 7.678 0 10.606-8.37 8.372-19.367 12.557-30.363 12.557z" fill="#d88a55"/></g><g><circle cx="256" cy="309.379" fill="#60b7ff" r="8.059"/></g><path d="m252.935 344.939c.927.551 1.987.842 3.065.842s2.138-.291 3.065-.842l4.972-2.955c-.22-4.254-3.729-7.638-8.038-7.638s-7.818 3.384-8.038 7.638z" fill="#60b7ff"/><g><path d="m201.847 328.271v-70.6c0-5.389-4.369-9.758-9.758-9.758h-17.287c-5.389 0-9.758 4.369-9.758 9.758v48.726z" fill="#978ecb"/><g><path d="m182 301.616v-43.945c0-5.389 4.369-9.758 9.758-9.758h-16.957c-5.389 0-9.758 4.369-9.758 9.758v33.867z" fill="#8379c1"/></g><path d="m346.957 306.397v-48.726c0-5.389-4.369-9.758-9.758-9.758h-17.287c-5.389 0-9.758 4.369-9.758 9.758v70.6z" fill="#978ecb"/><g><path d="m327 303.399v-45.728c0-5.389 4.369-9.758 9.758-9.758h-16.847c-5.389 0-9.758 4.369-9.758 9.758v55.74z" fill="#8379c1"/></g><path d="m146.336 295.278 104.043 61.838c1.7 1.01 3.643 1.544 5.62 1.544s3.92-.534 5.62-1.544l104.043-61.838c.11-.065.225-.112.336-.172v-6.099c0-3.877-4.222-6.279-7.555-4.298l-99.891 59.37c-1.574.936-3.535.936-5.109 0l-99.891-59.37c-3.333-1.981-7.555.421-7.555 4.298v6.099c.114.061.229.107.339.172z" fill="#fff"/></g></g><g><path d="m248.622 354.909-101.776-60.49c-6.666-3.962-15.109.842-15.109 8.596v43.985h25.363c3.784 0 6.863 3.079 6.863 6.863v.958c0 3.784-3.079 6.862-6.863 6.862v2c3.784 0 6.863 3.079 6.863 6.863v.958c0 3.784-3.079 6.863-6.863 6.863v2c3.784 0 6.863 3.079 6.863 6.862v.958c0 3.784-3.079 6.862-6.863 6.862v2c3.784 0 6.863 3.079 6.863 6.863v.958c0 3.784-3.079 6.863-6.863 6.863h-25.362v17.792c0 3.527 1.858 6.794 4.891 8.596l111.5 66.27c-.08-.452-.129-.915-.129-1.39v-145.001c0-1.095.222-2.14.622-3.091z" fill="#fe76a8"/><path d="m248.622 354.909-101.776-60.49c-6.666-3.962-15.109.842-15.109 8.596v43.985h25.363c3.784 0 6.863 3.079 6.863 6.863v.958c0 3.784-3.079 6.862-6.863 6.862v2c3.784 0 6.863 3.079 6.863 6.863v.958c0 3.784-3.079 6.863-6.863 6.863v2c3.784 0 6.863 3.079 6.863 6.862v.958c0 3.784-3.079 6.862-6.863 6.862v2c3.784 0 6.863 3.079 6.863 6.863v.958c0 3.784-3.079 6.863-6.863 6.863h-25.362v17.792c0 3.527 1.858 6.794 4.891 8.596l111.5 66.27c-.08-.452-.129-.915-.129-1.39v-145.001c0-1.095.222-2.14.622-3.091z" fill="#fe76a8"/><g fill="#fe5694"><path d="m157 303.015c0-.834.115-1.626.298-2.385l-10.451-6.212c-6.666-3.962-15.109.842-15.109 8.596v43.986h25.262z"/><path d="m157 447v-35.269h-25.262v17.792c0 3.527 1.858 6.794 4.891 8.596l21.068 12.521c-.449-1.142-.697-2.373-.697-3.64z"/></g><path d="m354.9 411.731c-3.784 0-6.863-3.079-6.863-6.863v-.958c0-3.784 3.079-6.863 6.863-6.863v-2c-3.784 0-6.863-3.079-6.863-6.862v-.958c0-3.784 3.079-6.862 6.863-6.862v-2c-3.784 0-6.863-3.079-6.863-6.863v-.958c0-3.784 3.079-6.863 6.863-6.863v-2c-3.784 0-6.863-3.079-6.863-6.862v-.958c0-3.784 3.079-6.863 6.863-6.863h25.362v-43.985c0-7.754-8.443-12.558-15.109-8.596l-101.776 60.49c.4.952.622 1.996.622 3.091v145c0 .475-.049.938-.129 1.39l111.5-66.27c3.032-1.802 4.891-5.069 4.891-8.596v-17.792h-25.361z" fill="#fe76a8"/></g><path d="m350.032 399.081c.814-1.494 1.549-3.021 2.195-4.575-2.46-1.044-4.189-3.484-4.189-6.32v-.958c0-3.784 3.079-6.862 6.863-6.862v-2c-3.784 0-6.863-3.079-6.863-6.863v-.958c0-2.725 1.601-5.078 3.908-6.185-5.7-10.085-17.637-14.882-31.446-11.182-19.338 5.182-35.014 25.058-35.014 44.396s15.676 30.814 35.014 25.632c11.34-3.038 21.415-11.133 27.814-21.206.324-1.115.92-2.116 1.718-2.919z" fill="#fea3c6"/><path d="m306.585 391.64c0-15.497 10.072-31.333 24.024-39.682-3.201-.107-6.593.278-10.109 1.22-19.338 5.182-35.014 25.058-35.014 44.396s15.676 30.814 35.014 25.632c3.838-1.028 7.525-2.647 10.98-4.715-14.403-.482-24.895-11.033-24.895-26.851z" fill="#fe93bb"/><g><path d="m256 512c-4.95 0-9-4.05-9-9v-145c0-4.95 4.05-9 9-9 4.95 0 9 4.05 9 9v145c0 4.95-4.05 9-9 9z" fill="#fe5694"/></g><g><g><g><g><path d="m125.557 346h31.543c4.342 0 7.863 3.52 7.863 7.863v.958c0 4.342-3.52 7.863-7.863 7.863 4.342 0 7.863 3.52 7.863 7.863v.958c0 4.342-3.52 7.863-7.863 7.863 4.342 0 7.863 3.52 7.863 7.863v.958c0 4.342-3.52 7.863-7.863 7.863 4.342 0 7.863 3.52 7.863 7.863v.958c0 4.342-3.52 7.863-7.863 7.863h-31.542c-4.342 0-7.863-3.52-7.863-7.863v-51.006c0-4.347 3.52-7.867 7.862-7.867z" fill="#fed2a4"/></g></g><path d="m137.254 404.869v-51.006c0-4.342 3.52-7.863 7.863-7.863h-19.559c-4.342 0-7.863 3.52-7.863 7.863v51.006c0 4.342 3.52 7.863 7.863 7.863h19.559c-4.343-.001-7.863-3.521-7.863-7.863z" fill="#ffbd86"/></g><g><g><g><g><path d="m386.443 346h-31.543c-4.342 0-7.863 3.52-7.863 7.863v.958c0 4.342 3.52 7.863 7.863 7.863-4.342 0-7.863 3.52-7.863 7.863v.958c0 4.342 3.52 7.863 7.863 7.863-4.342 0-7.863 3.52-7.863 7.863v.958c0 4.342 3.52 7.863 7.863 7.863-4.342 0-7.863 3.52-7.863 7.863v.958c0 4.342 3.52 7.863 7.863 7.863h31.543c4.342 0 7.863-3.52 7.863-7.863v-51.006c-.001-4.347-3.521-7.867-7.863-7.867z" fill="#fed2a4"/></g></g></g><path d="m367.036 404.869v-51.006c0-4.342 3.52-7.863 7.863-7.863h-19.999c-4.342 0-7.863 3.52-7.863 7.863v.958c0 4.342 3.52 7.863 7.863 7.863-4.342 0-7.863 3.52-7.863 7.863v.958c0 4.342 3.52 7.863 7.863 7.863-4.342 0-7.863 3.52-7.863 7.863v.958c0 4.342 3.52 7.863 7.863 7.863-4.342 0-7.863 3.52-7.863 7.863v.958c0 4.342 3.52 7.863 7.863 7.863h19.998c-4.342-.005-7.862-3.525-7.862-7.867z" fill="#ffbd86"/></g></g></g></svg>